<?xml version="1.0" encoding="UTF-8" standalone="no"?>
<svg xmlns="http://www.w3.org/2000/svg"
 width="257" height="361" viewBox="0 0 257 361">
<rect x="9" y="9" width="239" height="343" fill="white"/>
<g transform="translate(0,361) scale(0.1,-0.1)"
fill="#0a1b2f" stroke="none">
<path d="M235 3561 c-74 -18 -131 -67 -164 -141 -20 -45 -21 -56 -21 -1732 l0
-1688 65 0 65 0 0 236 0 236 455 457 455 457 101 23 c123 28 175 49 253 105
86 62 422 404 441 449 30 72 9 151 -51 190 -27 18 -31 26 -27 52 8 50 -14 110
-52 144 -20 17 -42 31 -50 31 -10 0 -15 11 -15 33 -1 75 -58 146 -131 162 -21
5 -29 14 -34 36 -10 46 -61 97 -108 110 -61 16 -106 -1 -184 -72 -62 -56 -67
-59 -102 -52 -59 13 -202 6 -250 -11 -92 -34 -158 -103 -226 -236 -52 -104
-64 -152 -74 -295 -7 -122 -11 -139 -34 -173 -15 -20 -103 -113 -197 -207
l-170 -170 0 918 c0 996 -2 954 54 991 23 15 115 16 1048 16 911 0 1026 -2
1046 -16 54 -38 51 64 53 -1743 l1 -1671 64 0 64 0 0 1681 c0 1291 -3 1691
-12 1723 -8 26 -31 60 -63 92 -42 42 -61 54 -104 63 -59 13 -2044 14 -2096 2z
m1193 -963 c18 -38 9 -53 -120 -184 -96 -99 -107 -114 -99 -135 5 -17 17 -25
37 -27 25 -2 44 13 144 113 117 117 136 128 181 105 13 -8 19 -21 19 -47 0
-33 -11 -47 -115 -153 -113 -114 -130 -141 -103 -168 26 -26 54 -10 158 93 59
58 114 105 124 105 25 0 56 -37 56 -68 0 -22 -23 -52 -100 -134 -102 -108
-117 -138 -81 -158 33 -17 40 -13 120 63 42 41 84 77 94 80 21 8 67 -33 67
-58 0 -25 -362 -395 -436 -446 -57 -39 -127 -65 -225 -84 -46 -8 -95 -23 -109
-31 -14 -9 -213 -206 -442 -438 l-417 -421 -1 385 0 385 221 220 c121 121 227
233 236 249 27 52 34 88 42 223 l7 132 49 98 c58 114 119 182 181 201 48 14
164 16 164 3 0 -5 -43 -49 -96 -98 -112 -103 -130 -130 -108 -162 8 -11 24
-21 35 -21 12 0 97 77 227 205 197 195 209 205 242 203 27 -2 38 -9 48 -30z"/>
<path d="M571 3242 c-79 -1 -140 -7 -148 -14 -10 -8 -13 -141 -13 -691 l0
-681 40 39 40 39 0 618 0 618 305 0 305 0 0 -240 0 -240 23 0 c13 0 31 8 40
18 15 16 17 50 17 264 0 184 -3 248 -12 256 -14 11 -362 19 -597 14z"/>
<path d="M1515 3243 c-88 -3 -112 -7 -122 -20 -18 -23 -18 -384 -1 -401 7 -7
25 -12 40 -12 l28 0 0 180 0 180 307 -2 306 -3 -2 -76 c-2 -59 1 -80 14 -93
19 -19 37 -20 53 -4 17 17 16 222 -1 236 -14 12 -420 21 -622 15z"/>
<path d="M1648 3028 c-16 -13 -58 -187 -58 -239 0 -31 17 -49 47 -49 30 0 37
18 63 149 24 124 24 116 4 135 -19 19 -35 20 -56 4z"/>
<path d="M1877 2794 c-126 -113 -142 -143 -92 -166 31 -14 42 -7 168 112 70
66 97 98 97 116 0 21 -25 44 -48 44 -5 0 -61 -47 -125 -106z"/>
<path d="M1970 2531 c-103 -6 -120 -12 -120 -41 0 -48 6 -50 129 -50 125 0
164 11 169 47 4 28 -24 53 -56 51 -15 -1 -70 -4 -122 -7z"/>
<path d="M2081 2336 c-8 -9 -11 -79 -9 -232 l3 -219 38 -3 37 -3 0 229 c0 200
-2 231 -16 236 -25 9 -41 7 -53 -8z"/>
<path d="M2087 1755 c-46 -16 -64 -30 -83 -66 -14 -28 -14 -28 -130 -31 -104
-3 -118 -5 -130 -23 -11 -16 -11 -25 -1 -45 12 -24 16 -25 132 -28 l120 -3 17
-30 c22 -38 98 -73 141 -65 76 15 127 76 127 154 0 94 -104 168 -193 137z"/>
<path d="M1413 1390 l-33 -20 0 -508 c0 -480 1 -510 18 -525 17 -15 57 -17
366 -17 220 0 354 4 367 10 18 10 19 27 19 516 l0 505 -37 -3 -38 -3 -3 -472
-2 -473 -305 0 -305 0 0 505 c0 278 -3 505 -7 505 -5 0 -23 -9 -40 -20z"/>
<path d="M1130 1297 l-25 -13 -3 -442 -2 -442 -305 0 -305 0 0 125 c0 69 -2
125 -5 125 -3 0 -20 -17 -40 -37 l-34 -38 -1 -117 c0 -106 2 -118 19 -128 13
-6 148 -10 370 -10 304 0 352 2 365 16 14 14 16 72 16 495 0 513 2 492 -50
466z"/>
</g>
</svg>
